<svg id="Layer_1" data-name="Layer 1" xmlns="http://www.w3.org/2000/svg" viewBox="0 0 42.94 49.05"><path d="M48,38.92c-3.54-5.45-3.88-15.7-4.1-17.66C43.5,13.41,36.08,10.14,35,9.92A4.33,4.33,0,0,0,30.52,6a4.66,4.66,0,0,0-4.46,3.92A13.51,13.51,0,0,0,16.9,21.26c-.22,14.61-4.14,17.66-4.14,17.66-2.4,2.62-3.51,3.71-3.7,7.2.67,4.14,3.7,4.25,3.7,4.25l13.3.11a4.4,4.4,0,0,0,4.75,4.57c4.54,0,4.23-4.79,4.23-4.79h13A4.21,4.21,0,0,0,52,45.68C51.78,41.76,49.43,40.23,48,38.92Zm-34.4,7.2a5.92,5.92,0,0,1,3-5c1.53-2.18,3.93-9.16,4.36-14.61-.22-4.57,0-13.08,9.38-13.08s10,8.29,10,13.52c.66,5.67,1.31,10,4.37,14.61,2.61,1.31,2.7,4.58,2.7,4.58Z" transform="translate(-9.06 -6)"/></svg>